<svg width="86" height="119" viewBox="0 0 86 119" fill="none" xmlns="http://www.w3.org/2000/svg">
<path d="M23.712 83.96C19.808 83.96 16.288 83.32 13.152 82.04C10.08 80.76 7.36 78.872 4.992 76.376L8.448 70.328L8.832 69.464L9.504 69.848C9.632 70.296 9.792 70.808 9.984 71.384C10.176 71.896 10.624 72.536 11.328 73.304C12.992 74.712 14.912 75.832 17.088 76.664C19.328 77.496 21.856 77.912 24.672 77.912C26.464 77.912 28.096 77.656 29.568 77.144C31.104 76.568 32.416 75.832 33.504 74.936C34.656 73.976 35.52 72.888 36.096 71.672C36.736 70.392 37.056 69.048 37.056 67.64C37.056 66.552 36.928 65.56 36.672 64.664C36.48 63.768 36.064 62.968 35.424 62.264C34.848 61.496 34.048 60.76 33.024 60.056C32 59.288 30.688 58.488 29.088 57.656C27.488 56.824 25.568 55.928 23.328 54.968C19.168 53.368 15.872 51.64 13.44 49.784C11.072 47.864 9.376 45.848 8.352 43.736C7.392 41.624 6.912 39.448 6.912 37.208C6.912 34.264 7.648 31.704 9.12 29.528C10.592 27.288 12.672 25.56 15.36 24.344C18.112 23.064 21.376 22.424 25.152 22.424C27.328 22.424 29.408 22.744 31.392 23.384C33.44 23.96 35.328 24.792 37.056 25.88C38.848 26.968 40.416 28.312 41.76 29.912L38.016 34.904L37.44 35.672L36.864 35.288C36.8 34.776 36.672 34.264 36.48 33.752C36.288 33.24 35.84 32.6 35.136 31.832C33.6 30.36 31.968 29.368 30.24 28.856C28.512 28.28 26.464 27.992 24.096 27.992C22.496 27.992 21.056 28.216 19.776 28.664C18.56 29.112 17.504 29.752 16.608 30.584C15.712 31.416 15.008 32.376 14.496 33.464C14.048 34.488 13.824 35.576 13.824 36.728C13.824 37.816 13.952 38.808 14.208 39.704C14.464 40.6 14.912 41.464 15.552 42.296C16.192 43.128 17.056 43.96 18.144 44.792C19.296 45.624 20.704 46.456 22.368 47.288C24.096 48.12 26.176 49.016 28.608 49.976C31.552 51.192 33.984 52.408 35.904 53.624C37.888 54.776 39.424 56.024 40.512 57.368C41.664 58.648 42.464 60.056 42.912 61.592C43.424 63.128 43.68 64.824 43.68 66.68C43.68 69.432 42.976 72.152 41.568 74.84C40.224 77.464 38.08 79.64 35.136 81.368C32.192 83.096 28.384 83.96 23.712 83.96Z" fill="white"/>
<path d="M45.776 101V95.336H57.584V46.856H46.448V41.192H76.112V46.856H64.304V95.432H76.688V101H45.776Z" fill="white"/>
</svg>
